# xmcd
#
# Track frame offsets:
#	150
#	16083
#	35907
#	58803
#	74649
#	94357
#	111986
#	127445
#	131068
#	147567
#	165345
#
# Disc length: 2503 seconds
#
# Revision: 18
# Processed by: cddbd v1.5.2PL0 Copyright (c) Steve Scherf et al.
# Submitted via: Jack! The Knife 20 Magnifico
#
DISCID=b209c50b
DTITLE=Alcatrazz - Disturbing The Peace
DYEAR=1985
DGENRE=Hard Rock
TTITLE0=God Blessed Video
TTITLE1=Mercy
TTITLE2=Will You Be Home Tonight
TTITLE3=Wire And Wood
TTITLE4=Desert Diamond
TTITLE5=Stripper
TTITLE6=Painted Lover
TTITLE7=Lighter Shade Of Green
TTITLE8=Sons And Lovers
TTITLE9=Skyfire
TTITLE10=Breaking The Heart Of The City
EXTD=Eddie Kramer
EXTT0=Bonnet, Vai
EXTT1=Bonnet, Vai, Valdo, Shea, Uvena
EXTT2=Bonnet, Vai, Valdo
EXTT3=Bonnet, Vai
EXTT4=Bonnet, Vai
EXTT5=Bonnet, Vai
EXTT6=Bonnet, Vai
EXTT7=Steve Vai
EXTT8=Bonnet, Vai
EXTT9=Bonnet, Vai
EXTT10=Bonnet, Vai
PLAYORDER=
